<svg viewBox="0 0 16 16" xmlns="http://www.w3.org/2000/svg">
    <g clip-path="url(#clip0_7201_62893)">
        <path
            d="M13.561 2.439C13.278 2.156 12.901 2 12.5 2H6.5C6.1 2 5.723 2.156 5.439 2.439C5.155 2.722 5 3.099 5 3.5V7H6V3.5C6 3.369 6.054 3.24 6.146 3.146C6.241 3.052 6.366 3 6.5 3H12.5C12.634 3 12.759 3.052 12.854 3.146C12.947 3.239 13 3.368 13 3.5V7.5C13 7.631 12.946 7.76 12.854 7.854C12.759 7.948 12.634 8 12.5 8H8.722C8.894 8.295 9 8.634 9 9H12.5C12.9 9 13.277 8.844 13.561 8.561C13.845 8.278 14 7.901 14 7.5V3.5C14 3.1 13.844 2.723 13.561 2.439Z"
            fill="#58B6FF" />
        <path
            d="M7.5 4C7.22386 4 7 4.22386 7 4.5C7 4.77614 7.22386 5 7.5 5H11.5C11.7761 5 12 4.77614 12 4.5C12 4.22386 11.7761 4 11.5 4H7.5Z"
            fill="#58B6FF" />
        <path
            d="M7 6.5C7 6.22386 7.22386 6 7.5 6H11.5C11.7761 6 12 6.22386 12 6.5C12 6.77614 11.7761 7 11.5 7H7.5C7.22386 7 7 6.77614 7 6.5Z"
            fill="#58B6FF" />
        <path fill-rule="evenodd" clip-rule="evenodd"
            d="M7 8H2C1.448 8 1 8.448 1 9V13C1 13.552 1.448 14 2 14H7C7.552 14 8 13.552 8 13V9C8 8.448 7.552 8 7 8ZM6.5 11H2.5C2.367 11 2.24 10.948 2.146 10.854C2.053 10.76 2 10.633 2 10.5C2 10.367 2.052 10.24 2.146 10.146C2.24 10.053 2.367 10 2.5 10H6.5C6.633 10 6.76 10.052 6.854 10.146C6.947 10.24 7 10.367 7 10.5C7 10.633 6.948 10.76 6.854 10.854C6.76 10.947 6.633 11 6.5 11Z"
            fill="#58B6FF" />
        <path
            d="M15.9999 11.93C15.9998 12.1828 15.9492 12.4331 15.8512 12.6661C15.7531 12.8991 15.6096 13.1102 15.4289 13.287L12.8069 15.873C12.7661 15.9133 12.7179 15.9452 12.6649 15.967C12.6125 15.9884 12.5565 15.9996 12.4999 16C12.4423 16.0002 12.3852 15.989 12.3319 15.967C12.2786 15.9452 12.23 15.9133 12.1889 15.873L9.56389 13.287C9.37754 13.1023 9.23147 12.881 9.13489 12.637C9.03742 12.3952 8.99144 12.1356 8.99989 11.875C9.00882 11.614 9.07146 11.3577 9.18389 11.122C9.29686 10.8845 9.45753 10.6727 9.65589 10.5C9.85489 10.3258 10.0868 10.1932 10.3379 10.11C10.5904 10.0265 10.8569 9.99391 11.1221 10.014C11.3873 10.0341 11.6458 10.1065 11.8829 10.227C12.1181 10.3466 12.3266 10.5126 12.4959 10.715C12.7552 10.403 13.1044 10.1784 13.4959 10.072C13.8881 9.96308 14.3042 9.97598 14.6889 10.109C15.0712 10.2405 15.4036 10.4867 15.6409 10.814C15.8752 11.1381 16.0009 11.5281 15.9999 11.928V11.93Z"
            fill="#E3E3E3" />
    </g>
    <defs>
        <clipPath id="clip0_7201_62893">
            <rect width="16" height="16" />
        </clipPath>
    </defs>
</svg>